#N canvas 0 23 844 608 12;
#X obj 197 63 oscparse;
#X obj 197 29 netreceive -u -b 32000;
#X obj 385 457 output~;
#X listbox 197 90 28 0 0 0 - - - 0;
#X listbox 197 149 26 0 0 0 - - - 0;
#X obj 197 220 array set oscrgb;
#X obj 197 117 list split 1;
#X obj 405 89 array define -k oscrgb 3;
#A 0 63 168 303;
#X obj 405 57 bng 19 250 50 0 empty empty empty 17 7 0 10 #dfdfdf #000000 #000000;
#X obj 405 29 loadbang;
#X obj 323 309 tabread oscrgb;
#X msg 323 272 0;
#X floatatom 323 342 5 0 0 0 - - - 0;
#X obj 323 221 bng 19 250 50 0 empty empty empty 0 -10 0 12 #fcfcfc #000000 #000000;
#X obj 431 308 tabread oscrgb;
#X floatatom 431 341 5 0 0 0 - - - 0;
#X msg 431 271 1;
#X obj 538 308 tabread oscrgb;
#X floatatom 538 341 5 0 0 0 - - - 0;
#X msg 538 271 2;
#X obj 323 375 phasor~;
#X obj 431 376 phasor~;
#X obj 538 376 phasor~;
#X connect 0 0 3 0;
#X connect 1 0 0 0;
#X connect 3 0 6 0;
#X connect 4 0 5 0;
#X connect 4 0 13 0;
#X connect 6 1 4 0;
#X connect 8 0 7 0;
#X connect 9 0 8 0;
#X connect 10 0 12 0;
#X connect 11 0 10 0;
#X connect 12 0 20 0;
#X connect 13 0 11 0;
#X connect 13 0 16 0;
#X connect 13 0 19 0;
#X connect 14 0 15 0;
#X connect 15 0 21 0;
#X connect 16 0 14 0;
#X connect 17 0 18 0;
#X connect 18 0 22 0;
#X connect 19 0 17 0;
#X connect 20 0 2 0;
#X connect 20 0 2 1;
#X connect 21 0 2 0;
#X connect 21 0 2 1;
#X connect 22 0 2 0;
#X connect 22 0 2 1;
