#N canvas 112 115 581 503 12;
#X obj 197 63 oscparse;
#X obj 197 29 netreceive -u -b 32000;
#X obj 220 311 output~;
#X obj 197 91 list split 1;
#X obj 237 123 list split 1;
#X floatatom 304 163 5 0 0 0 - - - 0;
#X floatatom 212 163 5 0 0 0 - - - 0;
#X obj 182 199 phasor~;
#X obj 338 197 phasor~;
#X connect 0 0 3 0;
#X connect 1 0 0 0;
#X connect 3 1 4 0;
#X connect 4 0 6 0;
#X connect 4 1 5 0;
#X connect 5 0 8 0;
#X connect 6 0 7 0;
#X connect 7 0 2 0;
#X connect 8 0 2 1;
