#N canvas 0 74 542 382 12;
#X obj 211 78 oscparse;
#X obj 197 29 netreceive -u -b 32000;
#X obj 187 118 f;
#X floatatom 187 152 5 0 0 0 - - - 0;
#X obj 111 318 output~;
#X obj 86 214 osc~;
#X obj 171 216 osc~;
#X obj 309 214 osc~;
#X obj 185 186 * 2;
#X obj 363 167 * 4;
#X connect 0 0 2 0;
#X connect 1 0 0 0;
#X connect 2 0 3 0;
#X connect 3 0 5 0;
#X connect 3 0 8 0;
#X connect 3 0 9 0;
#X connect 5 0 4 1;
#X connect 5 0 4 0;
#X connect 6 0 4 0;
#X connect 6 0 4 1;
#X connect 7 0 4 0;
#X connect 7 0 4 1;
#X connect 8 0 6 0;
#X connect 9 0 7 0;
